<?xml version="1.0" standalone="no"?><!DOCTYPE svg PUBLIC "-//W3C//DTD SVG 1.1//EN" "http://www.w3.org/Graphics/SVG/1.1/DTD/svg11.dtd"><svg t="1620983586140" class="icon" viewBox="0 0 1024 1024" version="1.1" xmlns="http://www.w3.org/2000/svg" p-id="2186" xmlns:xlink="http://www.w3.org/1999/xlink" width="200" height="200"><defs><style type="text/css"></style></defs><path d="M179.29 292.225h45.329c3.156 0 5.724-2.573 5.724-5.729s-2.566-5.734-5.724-5.734h-45.329c-13.637 0-24.718-11.087-24.718-24.718s11.092-24.718 24.718-24.718c1.977 0 3.975 0.219 5.713 0.611 2.857 0.716 5.964-1.065 6.788-3.851 5.314-16.881 20.807-28.224 38.562-28.224 14.931 0 28.59 8.143 35.712 21.348 0.814 1.36 2.081 2.326 3.571 2.736 1.502 0.41 3.228 0.115 4.663-0.83 5.297-3.653 11.507-5.577 17.957-5.577 16.646 0 30.468 12.971 31.474 29.584 0.126 1.54 0.852 2.965 2.048 4.009 0.95 0.83 2.267 1.316 3.61 1.316 0.327 0 0.661-0.033 0.786-0.054 0.693-0.071 1.463-0.142 2.293-0.142 7.859 0 14.265 6.401 14.265 14.259 0 7.865-6.401 14.265-14.265 14.265h-28.437c-3.156 0-5.724 2.573-5.724 5.729s2.566 5.729 5.724 5.729h28.437c5.549 0 10.671-1.786 14.866-4.779 0.928 1.027 2.244 1.682 3.73 1.682h32.691c2.774 0 5.030-2.25 5.030-5.024 0-2.78-2.256-5.030-5.030-5.030h-28.896c2.059-3.676 3.238-7.903 3.238-12.409 0-13.435-10.361-24.494-23.708-25.619-3.883-19.988-21.66-34.805-42.21-34.805-6.788 0-13.402 1.556-19.279 4.516-9.699-13.981-25.434-22.26-42.549-22.26-21.152 0-39.687 12.309-47.792 31.539-1.147-0.109-2.212-0.164-3.271-0.164-19.945 0-36.176 16.231-36.176 36.181 0 19.929 16.231 36.16 36.176 36.16z" p-id="2187"></path><path d="M876.905 831.805h-170.983c0.338-1.481 0.164-3.020-0.546-4.385-4.266-8.334-5.073-14.986-2.447-20.371 6.335-13.233 32.206-18.404 46.045-21.168 10.082-1.764 17.641-6.489 21.873-13.648 4.871-8.236 5.123-18.94 0.748-31.828-0.060-0.278-0.153-0.497-0.245-0.667 15.593-0.961 27.989-13.91 27.989-29.731v-309.925c0-16.444-13.375-29.829-29.824-29.829h-464.88c-16.444 0-29.819 13.386-29.819 29.829v309.92c0 16.444 13.38 29.824 29.819 29.824h19.257c-0.016 0.054-0.060 0.126-0.071 0.164l-0.049 0.147c-4.434 12.976-4.211 23.746 0.699 32.031 4.32 7.165 11.884 11.884 21.807 13.62 13.872 2.78 39.698 7.94 46.11 21.196 2.615 5.369 1.813 12.031-2.463 20.377-0.716 1.425-0.819 2.993-0.469 4.434h-202.894c-3.648 0-6.505 2.857-6.505 6.505 0 3.643 2.851 6.494 6.505 6.494h690.334c3.648 0 6.505-2.851 6.505-6.494 0.005-3.643-2.846-6.494-6.494-6.494zM304.65 726.658c-9.186 0-16.662-7.471-16.662-16.657v-309.92c0-9.191 7.476-16.668 16.662-16.668h464.88c9.186 0 16.657 7.476 16.657 16.668v309.92c0 9.186-7.471 16.657-16.657 16.657h-8.46c-12.615-10.585-30.048-13.861-34.341-14.522-0.884-0.153-5.707-0.901-13.38-0.901-13.156 0-36.619 2.337-62.641 15.51h-205.974c-26.116-13.238-49.677-15.581-62.87-15.581-7.854 0-12.741 0.798-13.26 0.884-4.292 0.667-21.78 3.965-34.406 14.609h-29.546zM530.17 820.98l8.574-6.636-8.826 4.161c-0.229-1.53-0.606-3.173-1.174-4.943-7.766-24.473-28.901-49.31-62.8-73.826h163.562c-33.969 24.543-55.149 49.404-62.921 73.903-0.59 1.868-0.977 3.599-1.207 5.199l-6.373-2.862 6.172 4.894c-0.306 4.975 1.027 8.519 2.599 10.928h-40.261c1.562-2.386 2.916-5.892 2.654-10.819zM578.131 830.455l2.687 1.349h-3.452l0.765-1.349zM518.002 831.805h-3.643l2.839-1.42 0.803 1.42zM587.421 831.805l-8.411-6.669-0.262-0.252c-0.294-0.426-1.262-2.326 0.284-7.252 6.892-21.676 27.296-45.171 58.993-67.929 30.682-22.047 60.829-25.346 76.054-25.346 6.613 0 10.513 0.611 10.551 0.618l0.404 0.038c1.731 0.273 26.81 4.571 34.39 19.764 2.998 8.869 3.102 16.062 0.317 20.825-2.212 3.779-6.477 6.259-12.676 7.383l-0.366 0.054c-17.214 3.429-46.033 9.169-55.324 28.327-4.199 8.81-3.529 19.033 1.906 30.431l-105.862 0.005zM403.948 801.293c-9.23-19.207-38.082-24.914-55.324-28.334l-0.355-0.049c-6.198-1.12-10.464-3.594-12.687-7.378-2.741-4.681-2.627-11.889 0.327-20.841 7.815-15.663 34.215-19.738 34.363-19.754l0.459-0.044c0.038-0.011 3.883-0.618 10.485-0.618 15.248 0 45.401 3.298 76.082 25.351 31.735 22.785 52.134 46.274 58.998 67.939 1.595 4.937 0.601 6.816 0.338 7.198l-9.066 7.028h-105.551c5.526-11.436 6.209-21.703 1.927-30.501z" p-id="2188"></path><path d="M912.55 831.805h-15.493c-3.648 0-6.505 2.857-6.505 6.499s2.857 6.494 6.505 6.494h15.493c3.648 0 6.505-2.851 6.505-6.494s-2.857-6.499-6.505-6.499z" p-id="2189"></path><path d="M166.434 831.805h-15.493c-3.643 0-6.505 2.857-6.505 6.499s2.857 6.494 6.505 6.494h15.493c3.578 0 6.499-2.906 6.499-6.494 0-3.648-2.857-6.499-6.499-6.499z" p-id="2190"></path><path d="M52.457 316.861h163.327c2.796 0 5.024-2.135 5.188-5.101 0-2.867-2.244-5.106-5.106-5.106h-163.403c-2.867 0-5.106 2.244-5.106 5.106-0.005 2.857 2.244 5.101 5.101 5.101z" p-id="2191"></path><path d="M288.402 337.402c0.142 0.202 0.278 0.404 0.453 0.585 0.95 1.005 2.3 1.579 3.714 1.579h1.481c2.774 0 5.030-2.256 5.030-5.030s-2.256-5.030-5.030-5.030h-1.486c-1.721 0-3.249 0.879-4.156 2.169-0.912-1.306-2.419-2.169-4.124-2.169h-142.798c-2.774 0-5.030 2.256-5.030 5.030s2.256 5.030 5.030 5.030h142.793c1.703 0 3.212-0.858 4.124-2.163z" p-id="2192"></path><path d="M255.066 765.865c-1.901 0-3.539 1.065-4.39 2.578-0.863-1.523-2.485-2.578-4.364-2.578h-163.168c-2.774 0-5.030 2.25-5.030 5.024 0 2.78 2.256 5.030 5.030 5.030h163.168c1.868 0 3.478-1.033 4.353-2.55 0.191 0.338 0.415 0.672 0.693 0.972 0.945 1.005 2.3 1.579 3.714 1.579h2.326c2.774 0 5.030-2.25 5.030-5.030 0-2.774-2.256-5.024-5.030-5.024h-2.332z" p-id="2193"></path><path d="M1004.131 622.373c-1.152 0-2.185 0.437-2.971 1.147-0.863-0.704-1.95-1.147-3.151-1.147h-79.566c-2.78 0-5.036 2.256-5.036 4.887-0.071 1.344 0.394 2.615 1.327 3.594 0.95 1.005 2.3 1.579 3.708 1.579h79.561c1.207 0 2.288-0.437 3.156-1.147 0.786 0.71 1.813 1.147 2.971 1.147 2.468 0 4.413-1.933 4.413-4.413v-1.245c0-2.463-1.939-4.402-4.413-4.402z" p-id="2194"></path><path d="M967.71 644.143c-2.206 0-3.975 1.551-4.325 3.648-0.601-2.097-2.523-3.648-4.812-3.648h-79.561c-2.785 0-5.041 2.25-5.041 5.030 0 2.774 2.256 5.030 5.041 5.030h79.561c2.288 0 4.211-1.546 4.812-3.653 0.35 2.102 2.125 3.653 4.325 3.653 2.474 0 4.413-1.933 4.413-4.413v-1.245c0-2.458-1.933-4.402-4.413-4.402z" p-id="2195"></path><path d="M163.059 786.028c0.923 1.152 2.321 1.911 3.905 1.911h0.852c2.78 0 5.030-2.256 5.030-5.030 0-2.78-2.256-5.036-5.030-5.036h-0.852c-1.589 0-2.988 0.759-3.905 1.911-0.923-1.147-2.326-1.911-3.916-1.911h-128.614c-2.774 0-5.024 2.256-5.019 4.882-0.077 1.338 0.382 2.615 1.316 3.599 0.945 1.010 2.293 1.584 3.708 1.584h128.614c1.595-0.011 2.993-0.759 3.91-1.911z" p-id="2196"></path><path d="M397.241 289.123h5.194c2.774 0 5.030-2.256 5.030-5.030s-2.256-5.024-5.030-5.024h-5.194c-2.774 0-5.030 2.25-5.030 5.024s2.256 5.030 5.030 5.030z" p-id="2197"></path><path d="M743.249 234.406c0.917 0.361 9.050 3.872 13.921 16.493 0.934 2.354 2.955 4.101 5.489 4.707 0.557 0.109 1.125 0.208 1.687 0.208 1.95 0 3.725-0.672 5.046-1.878 4.462-3.851 9.579-5.799 15.21-5.799 0.868 0 1.77 0.049 2.818 0.158l0.327 0.011c2.496 0 4.626-1.857 4.943-4.467 0.164-2.633-1.721-4.943-4.336-5.265-1.289-0.153-2.594-0.224-3.861-0.224-8.815 0-15.363 3.49-19.316 6.438-6.974-15.45-18.164-19.409-18.672-19.584-2.501-0.825-5.363 0.595-6.188 3.053-0.41 1.223-0.311 2.589 0.273 3.763 0.567 1.157 1.556 2.015 2.659 2.386z" p-id="2198"></path><path d="M767.279 214.734c0.83 0.322 8.318 3.511 12.862 15.264 0.945 2.135 2.846 3.758 5.085 4.341 0.606 0.158 1.201 0.24 1.731 0.24 1.808 0 3.583-0.677 4.828-1.813 4.042-3.529 8.743-5.309 13.948-5.309 0.803 0 1.638 0.044 2.599 0.147l0.333 0.011c2.442 0 4.446-1.742 4.779-4.309 0.186-2.573-1.584-4.768-4.194-5.123-1.152-0.126-2.326-0.186-3.468-0.186-8.028 0-14.128 3.113-17.995 5.882-6.538-14.331-16.909-17.902-17.466-18.087-2.375-0.677-4.992 0.655-5.827 2.96-0.426 1.19-0.361 2.468 0.17 3.599 0.53 1.12 1.481 1.971 2.615 2.381z" p-id="2199"></path><path d="M503.388 498.625c2.174 0 4.473-0.131 7.105-0.415 3.561-0.502 6.046-3.676 5.642-7.318-0.475-3.293-3.212-5.68-6.51-5.68-0.24 0-0.486 0.011-0.754 0.044-1.759 0.219-3.604 0.322-5.461 0.322-32.938 0-70.217-33.675-70.631-34.062-2.556-2.316-6.75-2.174-9.213 0.415-2.409 2.659-2.244 6.685 0.366 9.164 0.399 0.371 40.435 37.531 79.457 37.531z" p-id="2200"></path><path d="M557.509 498.226c2.583 0.268 4.964 0.399 7.084 0.399 39.469 0 79.042-37.197 79.359-37.525 1.273-1.213 2.027-2.906 2.076-4.653 0.049-1.715-0.574-3.337-1.742-4.565-2.398-2.517-6.729-2.687-9.225-0.317-0.355 0.338-37.541 34.025-70.467 34.025-1.901 0-3.769-0.115-5.598-0.338-3.665-0.388-6.843 2.212-7.236 5.745-0.388 3.594 2.19 6.832 5.75 7.231z" p-id="2201"></path><path d="M440.309 518.084c0-3.653-2.851-6.51-6.499-6.51h-101.658c-3.643 0-6.505 2.857-6.505 6.51 0 3.643 2.857 6.499 6.505 6.499h101.652c3.653 0 6.505-2.862 6.505-6.499z" p-id="2202"></path><path d="M635.415 518.084c0 3.643 2.857 6.499 6.505 6.499h101.658c3.583 0 6.499-2.916 6.499-6.499 0-3.653-2.851-6.51-6.499-6.51h-101.658c-3.653 0.005-6.505 2.862-6.505 6.51z" p-id="2203"></path><path d="M470.685 680.461c-0.574 1.638-0.481 3.397 0.268 4.954 1.507 3.146 5.593 4.582 8.694 3.091l52.117-24.805 53.308 24.718c0.863 0.497 1.819 0.732 2.922 0.732 2.55 0 4.828-1.474 5.936-3.812 0.742-1.546 0.835-3.282 0.273-4.894-0.574-1.644-1.775-2.971-3.403-3.746l-56.311-26.143c-1.737-0.742-3.795-0.754-5.505 0.044l-54.935 26.116c-1.589 0.759-2.774 2.092-3.364 3.746z" p-id="2204"></path></svg>